<svg width="33" height="24" viewBox="0 0 33 24" fill="none" xmlns="http://www.w3.org/2000/svg">
<path d="M24.4663 23.0703C24.5591 23.0378 24.7035 22.9566 24.7886 22.8875C24.8736 22.8225 25.6961 21.9125 26.619 20.8644C27.5394 19.8203 29.2229 17.915 30.3573 16.6353C31.7392 15.0753 32.4765 14.2141 32.59 14.0353C33.0875 13.2472 33.1314 12.0122 32.6931 11.0941C32.5693 10.83 25.2578 1.39688 25.0154 1.18563C24.4586 0.702188 23.7779 0.852501 23.3268 1.56344C23.0406 2.01438 22.9039 2.53438 22.9091 3.16406C22.9117 3.70438 22.9993 4.11875 23.2004 4.53719C23.2571 4.655 24.0538 5.71125 25.299 7.32L27.3048 9.90781L14.2131 9.92813L1.12136 9.94844L0.969254 10.0378C0.347923 10.4075 -0.0387955 11.3338 0.0101891 12.325C0.0565948 13.2716 0.427845 14.0109 1.02339 14.3481C1.13941 14.4131 1.97472 14.4172 14.2543 14.4375L27.3615 14.4578L25.3145 16.7734C24.1672 18.0694 23.2056 19.1866 23.1257 19.3125C22.6719 20.0316 22.5946 21.2219 22.9452 22.0669C23.136 22.53 23.4221 22.8794 23.7341 23.0297C23.9197 23.1231 24.2678 23.1434 24.4663 23.0703Z" fill="#5BD8D9"/>
</svg>
